# xmcd CD database file
# Copyright (C) 1997 Ti Kan
# 
# Track frame offsets:
#     200
#     19457
#     34907
#     44670
#     62882
#     85427
#     98745
#     117965
#     135770
#     155845
#     167415
# 
# Disc length: 2759 seconds
# 
# Revision: 1
# Processed by: cddbd v1.4b41PL1 Copyright (c) Steve Scherf et al.
# Submitted via: DiscPlay 4.0.3
# 
DISCID=920ac50b
DTITLE=Mudville Nine - Happy Hour
DYEAR=1900
DGENRE=
TTITLE0=Light Years
TTITLE1=Sound of a Train
TTITLE2=Beautiful Moon
TTITLE3=Snake in the Grass
TTITLE4=Happy Hour
TTITLE5=Downpour
TTITLE6=Indian Summer
TTITLE7=Compass Points
TTITLE8=Boston
TTITLE9=Time Machine
TTITLE10=The Last Word
EXTD=
EXTT0=
EXTT1=
EXTT2=
EXTT3=
EXTT4=
EXTT5=
EXTT6=
EXTT7=
EXTT8=
EXTT9=
EXTT10=
PLAYORDER=
